<?xml version="1.0" standalone="no"?>
<!DOCTYPE svg PUBLIC "-//W3C//DTD SVG 20010904//EN"
 "http://www.w3.org/TR/2001/REC-SVG-20010904/DTD/svg10.dtd">
<svg version="1.0" xmlns="http://www.w3.org/2000/svg"
 width="96.000000pt" height="96.000000pt" viewBox="0 0 96.000000 96.000000"
 preserveAspectRatio="xMidYMid meet">

<g transform="translate(0.000000,96.000000) scale(0.100000,-0.100000)"
fill="#000000" stroke="none">
<path d="M214 789 c-18 -20 -19 -40 -19 -288 0 -291 1 -297 58 -331 29 -18 52
-20 227 -20 175 0 198 2 227 20 57 34 58 40 58 331 0 248 -1 268 -19 288 -18
20 -28 21 -266 21 -238 0 -248 -1 -266 -21z m486 -291 c0 -220 -2 -254 -17
-270 -14 -16 -35 -18 -201 -18 -159 0 -188 2 -204 17 -17 15 -18 37 -18 270
l0 253 220 0 220 0 0 -252z"/>
<path d="M367 684 c-13 -13 -7 -94 8 -124 22 -42 53 -60 106 -60 79 0 123 54
117 141 -3 39 -6 44 -28 44 -22 0 -25 -5 -28 -45 -4 -53 -25 -80 -62 -80 -37
0 -58 27 -62 80 -2 36 -7 46 -23 48 -12 2 -24 0 -28 -4z"/>
</g>
</svg>
