<?xml version="1.0" standalone="no"?>
<!DOCTYPE svg PUBLIC "-//W3C//DTD SVG 20010904//EN"
 "http://www.w3.org/TR/2001/REC-SVG-20010904/DTD/svg10.dtd">
<svg version="1.0" xmlns="http://www.w3.org/2000/svg"
 width="192.000000pt" height="192.000000pt" viewBox="0 0 192.000000 192.000000"
 preserveAspectRatio="xMidYMid meet">

<g transform="translate(0.000000,192.000000) scale(0.100000,-0.100000)"
fill="#000000" stroke="none">
<path d="M672 1630 c-137 -36 -262 -131 -330 -251 -39 -69 -72 -192 -72 -269
0 -77 33 -200 72 -268 40 -71 129 -160 200 -201 166 -94 393 -90 551 11 l48
31 208 -207 c222 -221 235 -230 279 -183 43 46 35 58 -184 278 l-207 208 31
48 c75 117 99 272 64 412 -27 103 -69 178 -142 251 -72 72 -147 115 -246 140
-96 25 -177 25 -272 0z m243 -115 c312 -81 418 -473 191 -701 -241 -240 -651
-107 -709 230 -50 295 226 546 518 471z"/>
</g>
</svg>
