<?xml version="1.0" standalone="no"?>
<!DOCTYPE svg PUBLIC "-//W3C//DTD SVG 20010904//EN"
 "http://www.w3.org/TR/2001/REC-SVG-20010904/DTD/svg10.dtd">
<svg version="1.0" xmlns="http://www.w3.org/2000/svg"
 width="96.000000pt" height="96.000000pt" viewBox="0 0 96.000000 96.000000"
 preserveAspectRatio="xMidYMid meet">

<g transform="translate(0.000000,96.000000) scale(0.100000,-0.100000)"
fill="#000000" stroke="none">
<path d="M410 788 c-76 -52 -99 -131 -61 -207 28 -53 72 -81 131 -81 89 0 157
77 147 168 -8 76 -77 142 -147 142 -22 0 -51 -9 -70 -22z m125 -61 c17 -14 28
-36 32 -63 4 -33 1 -45 -22 -72 -21 -26 -34 -32 -65 -32 -31 0 -44 6 -65 32
-23 27 -26 39 -22 72 7 49 44 86 87 86 16 0 41 -10 55 -23z"/>
<path d="M390 435 c-85 -24 -147 -71 -181 -137 -25 -49 -24 -64 6 -93 l24 -25
241 0 241 0 24 25 c30 29 31 44 5 94 -57 112 -221 174 -360 136z m216 -80 c48
-24 104 -81 104 -107 0 -5 -18 -8 -40 -8 -33 0 -40 3 -40 20 0 17 -7 20 -51
20 -42 0 -52 -3 -56 -20 -5 -19 -14 -20 -139 -20 -74 0 -134 3 -134 6 0 19 46
76 76 95 89 55 186 60 280 14z"/>
</g>
</svg>
